<?xml version="1.0" encoding="UTF-8"?>
<svg id="Layer_2" data-name="Layer 2" xmlns="http://www.w3.org/2000/svg" viewBox="0 0 1418.26 2047.83">
  <defs>
    <style>
      .cls-1 {
        fill: #fff;
      }
    </style>
  </defs>
  <g id="_图层_1" data-name="图层 1">
    <path class="cls-1" d="M0,1847.06l3.34-28.06,1.05-28.83,1.13-29.06,1.22-29.28,1.33-29.25,1.42-29.05,1.5-29.06,1.62-29.14,1.7-29.06,1.84-29.05,1.93-28.54,2.13-29,2.18-29.06,2.21-28.69,2.18-29,1.84-27.07,1.36-23.24.99-20.69.62-19.33.43-19.42.23-20.35-.08-20.41-.28-21.03-.48-22.25-.85-23.33-1.13-26.08-1.56-28.63-1.7-29.05-1.93-28.97-2.04-29.2-1.98-29.05-2.07-29-1.9-28.54-1.79-29-1.62-29.05-1.56-28.54-1.42-29.05-1.36-29.06-1.19-28.71-1.13-29.05-1.08-29.06-.91-28.49-.79-28.26-.14-5.19-.2-8.42,9.92-1.36,9.35-1.19,7.43-1.22,6.46-1.19,6.24-1.42,6.24-1.7,6.15-1.93,6.46-2.18,6.24-2.41,6.38-2.78,5.95-2.75,5.95-3.06,5.58-3.12,5.47-3.32,5.1-3.35,4.96-3.6,5.1-3.91,4.68-3.97,4.54-4.11,4.54-4.45,4.45-4.68,4.2-4.76,4.11-4.96,3.83-5.1,3.69-5.16,3.46-5.33,3.2-5.39,2.89-5.39,2.69-5.44,2.55-5.61,2.35-5.73,2.04-5.75,2.07-6.24,2.04-7.29,2.27-8.87,2.13-9.27,1.98-9.64,1.84-9.92,1.5-9.5,1.13-9.01.99-9.13.85-9.78.57-10.49.43-11.28.2-11.54-.06-11.85-.23-12.19-.48-12.25-.79-12.61-.99-12.98-1.33-13.75-1.56-14.37-1.98-15.31-2.27-15.82-2.41-15.59-2.64-15.22-2.83-14.97-2.98-14.74-3.17-14.37-3.34-14.12-3.46-13.66-3.69-13.75-4.11-14.17-4.34-14.32-4.73-14.6-3.26-9.87-3.34-10.35,14.83-5.24,23.58-8.28,27.3-9.58,26.79-9.41,27.98-9.87,26.93-9.41,26.73-9.44,26.93-9.5,26.93-9.41,26.93-9.5,26.84-9.44,26.87-9.41,26.5-9.35,8.79-3.06,15.31-5.39,2.18,2.13,4.48,4.39,5.39,4.96,5.44,4.76,5.47,4.31,5.02,3.77,4.39,3.03,4.39,2.78,4.62,2.61,4.68,2.5,4.88,2.27,5.9,2.47,6.01,2.27,6.18,2.07,6.38,1.9,6.43,1.7,7.6,1.7,7.8,1.56,7.94,1.28,8.99,1.28,10.2,1.22,10.35.91,11.48.79,13.61.76,17.01.57,18.99.51,19.79.28h.85l4.25,11.39,4.25-11.39h.77l19.79-.28,18.99-.51,17.01-.57,13.61-.76,11.48-.79,10.35-.91,10.2-1.22,9.07-1.28,7.85-1.28,7.74-1.56,7.65-1.7,6.52-1.7,6.29-1.9,6.18-2.07,6.09-2.27,5.81-2.47,4.82-2.27,4.73-2.5,4.62-2.61,4.39-2.78,4.39-3.03,5.02-3.77,5.47-4.31,5.44-4.76,5.47-4.96,4.39-4.39,2.18-2.13,15.31,5.39,8.87,3.06,26.5,9.35,26.79,9.41,26.93,9.44,26.84,9.5,26.93,9.41,26.93,9.5,26.73,9.44,26.93,9.41,27.98,9.87,26.79,9.41,27.3,9.58,23.58,8.28,14.83,5.24-3.34,10.35-3.26,9.87-4.73,14.6-4.34,14.32-4.11,14.17-3.69,13.75-3.46,13.66-3.34,14.12-3.17,14.37-2.98,14.74-2.83,14.97-2.64,15.22-2.41,15.59-2.27,15.82-1.9,15.31-1.64,14.37-1.33,13.75-.99,12.98-.71,12.61-.57,12.25-.23,12.19-.06,11.85.2,11.54.42,11.28.65,10.49.77,9.78.94,9.13,1.19,9.01,1.5,9.5,1.84,9.92,1.98,9.64,2.13,9.27,2.27,8.87,2.13,7.29,1.98,6.24,2.13,5.75,2.27,5.73,2.55,5.61,2.69,5.44,2.98,5.39,3.12,5.39,3.54,5.33,3.6,5.16,3.91,5.1,4.02,4.96,4.2,4.76,4.45,4.68,4.54,4.45,4.54,4.11,4.76,3.97,5.02,3.91,4.96,3.6,5.19,3.35,5.39,3.32,5.58,3.12,5.95,3.06,5.95,2.75,6.38,2.78,6.24,2.41,6.46,2.18,6.15,1.93,6.32,1.7,6.24,1.42,6.38,1.19,7.51,1.22,9.35,1.19,9.92,1.36-.28,8.42-.14,5.19-.79,28.26-.91,28.49-1.08,29.06-1.13,29.05-1.19,28.71-1.36,29.06-1.42,29.05-1.47,28.54-1.7,29.05-1.79,29-1.9,28.54-1.98,29-2.07,29.05-2.04,29.2-1.84,28.97-1.79,29.05-1.47,28.63-1.22,26.08-.77,23.33-.57,22.25-.28,21.03-.09,20.41.23,20.35.43,19.42.71,19.33.91,20.69,1.36,23.24,1.84,27.07,2.18,29,2.21,28.69,2.18,29.06,2.13,29,1.93,28.54,1.84,29.05,1.7,29.06,1.62,29.14,1.5,29.06,1.42,29.05,1.33,29.25,1.22,29.28,1.13,29.06,1.05,28.83,3.34,28.06-11.48,1.42-11.06,1.22-10.91,1.42-9.35,1.42-8.93,1.47-8.79,1.84-8.45,1.84-7.71,1.98-7.03,1.98-6.43,2.07-5.9,2.13-5.58,2.18-5.67,2.41-6.09,2.98-6.6,3.34-7.43,4.03-8.31,4.82-8.14,5.05-8.08,5.16-7.94,5.39-8.31,5.9-9.84,7.29-19.64,15.02-13.66,10.49-10.35,7.6-9.3,6.52-8.56,5.81-8.79,5.58-9.35,5.61-9.44,5.39-10.06,5.44-10.12,5.19-10.21,4.96-9.92,4.54-10.01,4.31-9.84,3.97-9.78,3.63-9.86,3.46-9.41,2.98-9.58,2.78-9.69,2.47-10.15,2.41-10.63,2.21-11.96,2.18-13.12,2.13-14.65,2.21-16.95,2.18-19.13,2.21-22.45,2.32-23.19,2.21-22.68,1.9-22.25,1.64-22.17,1.33-21.91,1.13-19.76.85-18,.43-19.42.28-21.97.08-23.1-.23-23.19.23-21.97-.08-19.47-.28-17.94-.43-19.76-.85-21.83-1.13-22.25-1.33-22.25-1.64-22.68-1.9-23.19-2.21-22.45-2.32-19.13-2.21-16.95-2.18-14.66-2.21-13.12-2.13-11.96-2.18-10.63-2.21-10.15-2.41-9.69-2.47-9.5-2.78-9.5-2.98-9.86-3.46-9.69-3.63-9.92-3.97-10.06-4.31-9.86-4.54-10.26-4.96-10.06-5.19-10.06-5.44-9.44-5.39-9.35-5.61-8.79-5.58-8.56-5.81-9.3-6.52-10.35-7.6-13.66-10.49-19.64-15.02-9.84-7.29-8.22-5.9-8.02-5.39-7.99-5.16-8.22-5.05-8.31-4.82-7.43-4.03-6.52-3.34-6.18-2.98-5.67-2.41-5.58-2.18-5.81-2.13-6.52-2.07-7.03-1.98-7.71-1.98-8.45-1.84-8.79-1.84-8.93-1.47-9.27-1.42-11-1.42-10.97-1.22-11.57-1.42Z"/>
  </g>
</svg>