<?xml version="1.0" encoding="UTF-8"?>
<svg id="Layer_2" data-name="Layer 2" xmlns="http://www.w3.org/2000/svg" viewBox="0 0 1089.07 107.86">
  <defs>
    <style>
      .cls-1 {
        fill: #fff;
      }
    </style>
  </defs>
  <g id="_图层_1" data-name="图层 1">
    <path class="cls-1" d="M540.28,107.86h-53.72l-29.06-.06-28.77.06h-28.35l-28.77-.06-28.49-.09h-3.69l-4.25-11.34-4.25,11.34-16.24-.06-28.49-.23-28.49-.34-28.49-.43-28.49-.51-20.89-.57-17.15-.71-15.25-.91-13.89-.99-12.67-1.22-11.62-1.28-8.93-1.28-8.45-1.42-7.85-1.62-7.23-1.84-7.17-2.13-6.38-2.27-6.38-2.5-6.29-2.83-5.53-2.83-5.39-3.03-6.18-3.83-9.92-6.38L0,53.43l24.66-14.94,12.33-7.6,6.43-3.74,6.6-3.49,6.72-3.17,6.46-2.69,5.81-2.07,6.66-2.04,6.58-1.7,7.37-1.56,8.08-1.42,8.73-1.28,10.2-1.22,14.37-1.42,14.4-1.13,14.09-.91,15.11-.65,17.15-.57,23.81-.42,28.63-.42,28.77-.34,28.97-.23,28.77-.2,28.77-.08,28.49-.06,28.71-.08h114.24l13.61.08,13.61-.08h114.24l28.69.08,28.57.06,28.69.08,28.77.2,29,.23,28.77.34,28.63.42,23.81.42,17.21.57,15.02.65,14.17.91,14.31,1.13,14.4,1.42,10.2,1.22,8.7,1.28,8.08,1.42,7.37,1.56,6.6,1.7,6.66,2.04,5.81,2.07,6.43,2.69,6.75,3.17,6.58,3.49,6.46,3.74,12.33,7.6,24.66,14.94-23.61,15.11-9.92,6.38-6.09,3.83-5.44,3.03-5.53,2.83-6.32,2.83-6.38,2.5-6.38,2.27-7.14,2.13-7.23,1.84-7.79,1.62-8.45,1.42-8.99,1.28-11.62,1.28-12.61,1.22-13.97.99-15.22.91-17.15.71-20.92.57-28.49.51-28.49.43-28.49.34-28.49.23-16.21.06-4.25-11.34-4.25,11.34h-3.69l-28.49.09-28.77.06h-28.35l-28.77-.06-29.06.06h-53.72l-4.25-11.34-4.25,11.34Z"/>
  </g>
</svg>