<?xml version="1.0" encoding="UTF-8"?>
<svg id="Layer_2" data-name="Layer 2" xmlns="http://www.w3.org/2000/svg" viewBox="0 0 1412.22 1909.9">
  <defs>
    <style>
      .cls-1 {
        fill: #fff;
      }
    </style>
  </defs>
  <g id="_图层_1" data-name="图层 1">
    <path class="cls-1" d="M1412.14,1853.21h-28.12l-17.38.28-16.07.43-14.88.57-13.69.85-13.24.99-13.69,1.28-13.75,1.5-14.8,1.9-17.23,2.41-21.69,3.34-28.77,4.59-28.2,4.54-28.2,4.39-28.4,4.34-28.43,4.11-24.94,3.32-22.39,2.83-21.46,2.41-20.27,2.07-20.69,1.84-21.63,1.7-22.45,1.56-23.39,1.33-24.89,1.13-25.99.99-28.63.85-29,.65-27.78.34-26.7.14h-28.29l-10.97-.14-11,.14h-28.35l-26.65-.14-27.78-.34-28.97-.65-28.63-.85-26.02-.99-24.86-1.13-23.39-1.33-22.48-1.56-21.6-1.7-20.69-1.84-20.27-2.07-21.54-2.41-22.34-2.83-24.94-3.32-28.4-4.11-28.43-4.34-28.2-4.39-28.2-4.54-28.77-4.59-21.69-3.34-17.21-2.41-14.83-1.9-13.75-1.5-13.66-1.28-13.27-.99-13.66-.85-14.88-.57-16.1-.43-17.35-.28H.06l.23-28.26.34-10.71.99-28.77,1.22-28.69,1.19-28.71,1.42-29.2,1.42-28.69,1.5-28.71,1.62-28.69,1.7-28.49,1.84-28.71,1.98-28.63,2.07-28.35,2.18-28.63,2.27-28.63,2.07-28.35,1.76-26.79,1.28-22.96.94-20.13.62-18.48.37-19.13.2-20.13-.14-21.12-.28-21.06-.57-22.54-.91-23.95-1.13-25.85-1.56-28.72-1.79-29.05-1.9-28.69-1.98-28.71-2.07-29.11-1.98-28.71-1.84-28.63-1.84-29.05-1.62-28.69-1.5-28.71-1.42-29.2-1.33-28.69-1.22-28.71-1.13-28.91-.99-29.05-.91-28.91-.71-24.38-.43-14.8,9.84-1.5,9.3-1.28,7.8-1.28,6.58-1.28,6.52-1.47,6.38-1.79,6.32-1.9,6.38-2.27,6.15-2.41,6.38-2.78,6.04-2.83,5.73-2.98,5.53-3.12,5.53-3.4,5.19-3.46,5.02-3.63,4.82-3.74,4.68-3.97,4.62-4.2,4.54-4.54,4.54-4.82,4.17-4.82,4.11-5.02,3.91-5.19,3.6-5.1,3.26-5.24,3.2-5.39,2.89-5.39,2.78-5.73,2.61-5.9,2.35-5.95,2.18-6.09,1.84-6.09,2.13-7.65,2.49-9.92,2.04-9.35,1.93-9.55,1.62-9.58,1.42-9.35,1.22-9.35.91-9.27.71-10.01.57-10.49.37-11.11.14-11.57-.14-12.05-.37-12.19-.57-12.53-.85-13.04-1.13-13.46-1.33-14.03-1.7-14.74-2.07-15.53-2.32-15.87-2.49-15.45-2.61-14.88-2.78-14.32-2.98-14.03-3.03-13.75-3.34-13.66-3.54-13.41-3.97-14.17-4.68-15.79-5.24-17.09-5.02-15.45-3.91-12.19,10.71-3.74,11.34-3.97,26.79-9.44,26.99-9.5,26.93-9.5,26.79-9.35,26.79-9.41,26.73-9.44,27.35-9.64,26.79-9.35,26.7-9.41,27.16-9.58,27.78-9.7,27.13-9.58,26.08-9.13.71,16.5.51,12.19.85,16.1.91,14.6,1.08,12.61,1.19,11.82,1.36,11.34,1.47,10.86,1.7,10.4,1.84,9.92,1.93,9.64,2.13,9.01,2.18,8.7,2.35,8.36,2.47,7.94,2.55,7.65,2.69,7.31,2.83,6.86,2.83,6.66,2.98,6.24,3.06,6.04,3.12,5.73,3.26,5.47,3.32,5.3,3.4,4.96,3.49,4.68,3.6,4.54,3.63,4.25,3.74,4.11,3.83,3.83,3.83,3.63,4.11,3.6,4.34,3.4,4.39,3.34,4.73,3.17,4.96,3.2,4.96,2.89,5.24,2.83,5.53,2.78,5.67,2.55,5.33,2.18,5.81,2.21,4.11,1.42.43,12.05,7.71-9.64,1.98.48,6.66,1.56,6.24,1.28,7.09,1.22,7.37,1.05,7.65.85,8.36.71,10.01.65,10.35.34,10.35-.34,9.98-.65,8.36-.71,7.65-.85,7.37-1.05,7.09-1.22,6.24-1.28,6.66-1.56,1.98-.48,7.65,9.64.51-12.05,4.11-1.42,5.81-2.21,5.3-2.18,5.67-2.55,5.53-2.78,5.24-2.83,4.96-2.89,4.96-3.2,4.76-3.17,4.39-3.34,4.31-3.4,4.11-3.6,3.83-3.63,3.83-3.83,3.77-4.11,3.6-4.25,3.63-4.54,3.46-4.68,3.4-4.96,3.34-5.3,3.26-5.47,3.12-5.73,3.03-6.04,2.98-6.24,2.83-6.66,2.78-6.86,2.69-7.31,2.61-7.65,2.49-7.94,2.32-8.36,2.21-8.7,2.04-9.01,1.98-9.64,1.84-9.92,1.7-10.4,1.5-10.86,1.33-11.34,1.22-11.82,1.05-12.61.94-14.6.77-16.1.57-12.19.71-16.5,26.08,9.13,27.16,9.58,27.69,9.7,27.21,9.58,26.73,9.41,26.7,9.35,27.44,9.64,26.7,9.44,26.79,9.41,26.79,9.35,26.93,9.5,27.01,9.5,26.79,9.44,11.34,3.97,10.69,3.74-3.88,12.19-5.05,15.45-5.24,17.09-4.68,15.79-3.97,14.17-3.54,13.41-3.32,13.66-3.12,13.75-2.92,14.03-2.75,14.32-2.64,14.88-2.47,15.45-2.35,15.87-2.04,15.53-1.7,14.74-1.42,14.03-1.08,13.46-.85,13.04-.57,12.53-.34,12.19-.14,12.05.14,11.57.34,11.11.57,10.49.71,10.01.94,9.27,1.19,9.35,1.42,9.35,1.64,9.58,1.9,9.55,2.07,9.35,2.47,9.92,2.07,7.65,1.9,6.09,2.13,6.09,2.41,5.95,2.64,5.9,2.75,5.73,2.92,5.39,3.17,5.39,3.26,5.24,3.63,5.1,3.88,5.19,4.11,5.02,4.2,4.82,4.54,4.82,4.54,4.54,4.59,4.2,4.68,3.97,4.82,3.74,5.05,3.63,5.16,3.46,5.53,3.4,5.53,3.12,5.75,2.98,6.01,2.83,6.38,2.78,6.18,2.41,6.38,2.27,6.29,1.9,6.38,1.79,6.52,1.47,6.52,1.28,7.88,1.28,9.27,1.28,9.86,1.5-.43,14.8-.71,24.38-.94,28.91-1.05,29.05-1.08,28.91-1.19,28.71-1.36,28.69-1.42,29.2-1.47,28.71-1.64,28.69-1.84,29.05-1.84,28.63-1.98,28.71-2.04,29.11-1.98,28.71-1.93,28.69-1.76,29.05-1.56,28.72-1.13,25.85-.94,23.95-.57,22.54-.28,21.06-.14,21.12.23,20.13.34,19.13.65,18.48.91,20.13,1.28,22.96,1.79,26.79,2.04,28.35,2.27,28.63,2.13,28.63,2.13,28.35,1.98,28.63,1.84,28.71,1.7,28.49,1.56,28.69,1.56,28.71,1.42,28.69,1.42,29.2,1.22,28.71,1.19,28.69.99,28.77.37,10.71.2,28.26Z"/>
  </g>
</svg>