<?xml version="1.0" encoding="UTF-8"?>
<svg id="Layer_2" data-name="Layer 2" xmlns="http://www.w3.org/2000/svg" viewBox="0 0 1047.88 677.42">
  <defs>
    <style>
      .cls-1 {
        fill: #fff;
      }
    </style>
  </defs>
  <g id="_图层_1" data-name="图层 1">
    <path class="cls-1" d="M55.13,677.42l4.68-21.26,1.56-7.09-1.56-7.09-6.18-28.29-6.15-27.98-6.09-28.01-6.52-29.76-6.66-30.33-6.46-29.62-6.8-31.24-6.52-29.62-5.53-25.23-2.89-13.32,16.64-6.8,10.63-4.25,9.07-3.77,8.73-3.88,8.84-4.25,9.44-4.76,8.93-4.73,8.36-4.76,7.94-4.68,7.43-4.68,7.09-4.73,6.75-4.82,6.24-4.68,6.01-4.9,6.09-5.16,6.09-5.53,6.09-5.9,6.24-6.29,6.38-6.8,6.52-7.46,6.8-7.85,7.23-8.87,7.51-9.69,8.36-11.05,9.72-13.41,14.23-19.9,16.38-23.19,10.54-14.66,8.93-11.99,8.02-10.26,7.51-9.5,7.14-8.59,7.03-7.99,6.72-7.37,6.66-6.94,6.6-6.61,6.43-6.09,6.32-5.67,6.43-5.44,6.46-5.19,6.43-4.82,6.52-4.68,6.66-4.45,7.03-4.39,7.23-4.25,7.43-4.11,7.6-3.91,7.65-3.68,7.99-3.54,8.08-3.4,8.22-3.17,8.22-2.92,8.36-2.69,8.65-2.61,8.79-2.35,8.73-2.04,8.84-1.93,8.79-1.62,8.65-1.36,8.79-1.13,8.73-.91,8.99-.71,10.57-.57,8.14-.23,4.25,11.2,4.25-11.2,8.22.23,10.57.57,8.99.71,8.73.91,8.79,1.13,8.65,1.36,8.79,1.62,8.84,1.93,8.73,2.04,8.7,2.35,8.65,2.61,8.36,2.69,8.31,2.92,8.22,3.17,8.08,3.4,7.99,3.54,7.65,3.68,7.51,3.91,7.51,4.11,7.23,4.25,6.94,4.39,6.75,4.45,6.52,4.68,6.43,4.82,6.46,5.19,6.44,5.44,6.32,5.67,6.43,6.09,6.6,6.61,6.66,6.94,6.72,7.37,6.95,7.99,7.17,8.59,7.57,9.5,7.94,10.26,8.93,11.99,10.63,14.66,16.38,23.19,14.17,19.9,9.69,13.41,8.36,11.05,7.6,9.69,7.23,8.87,6.72,7.85,6.6,7.46,6.38,6.8,6.15,6.29,6.18,5.9,6.09,5.53,6.09,5.16,6.01,4.9,6.24,4.68,6.75,4.82,7,4.73,7.46,4.68,7.99,4.68,8.36,4.76,8.93,4.73,9.35,4.76,8.93,4.25,8.73,3.88,8.99,3.77,10.63,4.25,16.72,6.8-2.98,13.32-5.53,25.23-6.43,29.62-6.8,31.24-6.52,29.62-6.6,30.33-6.52,29.76-6.09,28.01-6.15,27.98-6.18,28.29-1.56,7.09,1.56,7.09,4.62,21.26H55.13Z"/>
  </g>
</svg>