<svg xmlns="http://www.w3.org/2000/svg" viewBox="700 680 620 820" role="img" aria-label="Jardin du Desert mark">
  <path fill="#99542D" stroke="none" d="M967.157654,727.155273 
	C971.420288,725.770386 975.592346,723.834656 979.964478,723.115723 
	C988.954041,721.637451 997.600769,722.702942 1006.614441,725.283936 
	C1015.222595,727.748779 1022.661133,731.375732 1029.494751,736.727600 
	C1037.948730,743.348694 1044.799316,751.653687 1048.452393,761.549072 
	C1050.876831,768.116455 1050.276001,775.806458 1050.991455,782.997742 
	C1052.228394,795.431580 1053.435791,807.868347 1054.658447,820.303650 
	C1054.674561,820.468323 1054.746826,820.627747 1054.760986,820.792358 
	C1056.106567,836.411682 1057.711426,852.014282 1058.727417,867.655090 
	C1060.058716,888.152649 1060.909058,908.681213 1062.027344,929.193176 
	C1062.104126,930.601685 1062.687988,931.982544 1063.149780,933.832214 
	C1068.143311,928.033020 1072.692261,922.516968 1077.488037,917.224609 
	C1091.543335,901.714294 1106.996704,887.801575 1123.844849,875.300598 
	C1134.306885,867.537964 1145.046753,860.647400 1157.638672,857.208069 
	C1171.786865,853.343628 1186.444336,851.118225 1200.852417,853.488403 
	C1211.972412,855.317627 1223.671997,857.421997 1233.048706,864.790466 
	C1243.361572,872.894592 1251.258545,882.438232 1249.916870,896.799072 
	C1249.027100,906.323730 1244.358765,914.199768 1237.752197,920.416870 
	C1221.371582,935.831970 1204.771729,951.057556 1187.580078,965.553223 
	C1173.849121,977.131042 1159.443115,987.987427 1144.727417,998.294006 
	C1132.530029,1006.836853 1119.478638,1014.167969 1106.740723,1021.929565 
	C1094.624023,1029.312622 1082.396973,1036.514893 1070.277466,1043.893311 
	C1067.174927,1045.782104 1065.718140,1048.355957 1065.873291,1052.453491 
	C1066.276001,1063.088379 1066.919189,1073.849731 1065.795288,1084.382324 
	C1061.869263,1121.177612 1065.141479,1158.051270 1063.851318,1194.861694 
	C1063.571655,1202.837036 1064.025879,1210.835327 1063.944214,1218.820923 
	C1063.567627,1255.634888 1063.072632,1292.447632 1062.732178,1329.261841 
	C1062.642822,1338.916016 1063.144409,1348.576294 1063.026855,1358.229370 
	C1062.917603,1367.194824 1062.058350,1376.154541 1062.054443,1385.116943 
	C1062.050415,1394.424072 1062.974121,1403.732422 1062.940063,1413.038208 
	C1062.908081,1421.797729 1062.156372,1430.554810 1061.702148,1439.696777 
	C1055.355469,1439.696777 1048.971191,1439.696777 1041.370972,1439.696777 
	C1041.255127,1428.586304 1041.112549,1417.551147 1041.033325,1406.515381 
	C1040.965210,1397.017822 1040.852295,1387.518311 1040.963257,1378.022095 
	C1041.270386,1351.755615 1041.667603,1325.490234 1042.061279,1299.224854 
	C1042.360107,1279.287354 1042.844116,1259.351685 1042.999756,1239.413330 
	C1043.189697,1215.091431 1043.028076,1190.767090 1043.190186,1166.444824 
	C1043.391113,1136.307251 1043.742554,1106.170532 1044.104614,1076.034302 
	C1044.144043,1072.742432 1044.812622,1069.460327 1044.908447,1066.165649 
	C1044.936523,1065.198608 1044.218750,1063.812866 1043.421387,1063.357910 
	C1042.887329,1063.053223 1041.585815,1064.004028 1040.669067,1064.473755 
	C1033.762695,1068.011963 1034.378784,1074.848999 1034.014526,1080.874023 
	C1033.305908,1092.597534 1033.035156,1104.358398 1032.952637,1116.106567 
	C1032.806763,1136.849731 1032.847900,1157.595459 1032.982910,1178.338989 
	C1033.082397,1193.600952 1034.065918,1208.881470 1033.552124,1224.116577 
	C1032.927979,1242.624023 1031.372559,1261.111938 1029.769409,1279.569336 
	C1028.932129,1289.209229 1027.877441,1298.949341 1025.573486,1308.312744 
	C1022.672607,1320.102417 1019.648438,1332.279297 1009.997864,1340.835571 
	C1003.327698,1346.749390 1004.837708,1353.725952 1006.149841,1360.870972 
	C1008.716919,1374.849609 1007.781128,1388.751709 1005.997864,1402.751465 
	C1004.997803,1410.603027 1005.314941,1418.624268 1005.078918,1426.570312 
	C1004.980103,1429.897095 1005.332397,1433.286133 1004.779541,1436.527466 
	C1004.547913,1437.885498 1002.561523,1439.872192 1001.263977,1439.959839 
	C995.645935,1440.339233 989.987671,1440.122559 983.978149,1440.122559 
	C983.978149,1434.681396 983.978149,1429.692139 984.383362,1424.118652 
	C985.204285,1422.148438 985.418579,1420.656128 986.080994,1419.400146 
	C987.190552,1417.296509 988.536682,1415.310181 989.881104,1413.341064 
	C990.587952,1412.305786 991.502197,1411.412231 992.322754,1410.454712 
	C990.987122,1410.481934 989.651550,1410.522827 988.315735,1410.529419 
	C987.836121,1410.531738 987.356140,1410.451538 986.252869,1410.353638 
	C987.171753,1406.304688 988.259338,1402.417969 988.906677,1398.459473 
	C990.024109,1391.626709 991.524841,1384.761230 991.649963,1377.887329 
	C991.787415,1370.337036 990.453125,1362.768433 989.946533,1355.195435 
	C989.550781,1349.279785 988.732544,1348.634644 983.072510,1350.229004 
	C982.113220,1350.499146 980.909912,1350.206055 979.927917,1349.862793 
	C979.704956,1349.784912 979.740173,1348.345825 979.986084,1347.649658 
	C981.701294,1342.793335 980.399780,1340.375122 974.988342,1340.302002 
	C967.021912,1340.194214 961.385986,1335.632812 955.584229,1331.249268 
	C953.671936,1329.804443 952.058472,1327.963989 950.308350,1326.304443 
	C950.545532,1326.084473 950.782715,1325.864502 951.019897,1325.644653 
	C954.029907,1326.735107 957.039917,1327.825684 960.096436,1328.904297 
	C960.143005,1328.892334 960.186523,1328.976685 960.261841,1329.293213 
	C962.253235,1330.750732 964.169312,1331.891846 966.496155,1332.993164 
	C968.580444,1333.443848 970.227478,1334.071411 971.932068,1334.400513 
	C978.674255,1335.702026 982.831177,1335.480591 981.870117,1327.897949 
	C981.238037,1322.911499 981.196411,1317.690552 979.591003,1313.021362 
	C976.550110,1304.177490 974.189026,1295.346558 973.717773,1285.944214 
	C973.512390,1281.846436 971.971558,1277.815430 971.119751,1274.112915 
	C968.207642,1277.367432 965.277466,1280.642212 961.947205,1283.868164 
	C959.994629,1283.703979 958.442139,1283.588501 957.452209,1283.514893 
	C960.834778,1276.244141 964.010254,1269.418579 967.246277,1262.462891 
	C968.869568,1263.820923 970.047485,1264.806396 971.765686,1266.243896 
	C972.585449,1264.369507 973.611694,1263.083374 973.647339,1261.770386 
	C973.888367,1252.896606 974.036499,1244.016235 973.949585,1235.140503 
	C973.922607,1232.391357 972.708435,1229.655762 972.667480,1226.904663 
	C972.545837,1218.739502 973.445740,1210.500854 972.660889,1202.415771 
	C970.989990,1185.203125 971.897705,1168.119385 975.223022,1151.316772 
	C976.515808,1144.784302 970.702393,1138.646606 975.356995,1132.467163 
	C975.498413,1132.279419 974.988647,1131.594849 974.773804,1131.145996 
	C972.172302,1125.709961 972.372498,1120.454102 974.825195,1114.873535 
	C975.813232,1112.625488 974.979980,1109.577026 975.096802,1106.564941 
	C982.545471,1095.927246 989.581787,1085.391846 997.321228,1075.401367 
	C1001.286438,1070.282715 1006.350525,1065.961548 1011.204224,1061.598633 
	C1017.230835,1056.181396 1017.150757,1048.791016 1017.937805,1041.786255 
	C1019.289429,1029.755859 1021.763794,1018.061829 1026.290649,1006.807007 
	C1030.931152,995.269836 1035.635010,983.751282 1039.911255,972.078186 
	C1041.510376,967.713135 1042.817871,962.930481 1042.793823,958.345947 
	C1042.742554,948.623474 1041.554077,938.913269 1041.152832,929.184814 
	C1040.585205,915.423218 1040.308960,901.649658 1039.902588,887.881409 
	C1039.883057,887.218384 1039.863525,886.547668 1039.751953,885.896240 
	C1038.475952,878.434204 1036.397095,871.009949 1036.064819,863.507812 
	C1035.475830,850.206421 1034.152588,837.065186 1032.151855,823.898071 
	C1030.573120,813.508728 1030.696167,802.868347 1029.859009,792.355774 
	C1029.359009,786.075195 1030.136475,779.921265 1028.218384,773.439270 
	C1025.904297,765.618835 1022.371948,759.087219 1016.242920,754.396912 
	C1007.500183,747.706604 997.574341,743.349304 986.168335,743.554932 
	C983.077881,741.229004 981.937134,741.426025 981.012939,744.498047 
	C980.375000,745.151794 979.731201,745.479309 978.982239,745.513184 
	C977.917664,745.504944 976.958252,745.790344 976.006714,746.035583 
	C976.014587,745.995361 976.095520,746.008728 975.668396,745.945557 
	C965.542969,745.480103 961.098145,754.112061 953.541809,758.470032 
	C953.920288,757.257385 953.927490,756.108459 954.504639,755.565430 
	C958.709656,751.609314 962.890808,747.604675 967.364746,743.966064 
	C970.039001,741.791138 973.358582,740.421021 976.115051,738.329407 
	C977.064148,737.609192 977.815613,735.619080 977.505615,734.539917 
	C977.210266,733.511780 975.471191,732.387390 974.262817,732.255127 
	C972.546204,732.067078 970.696045,732.610657 968.972656,733.091492 
	C966.567200,733.762695 964.226074,734.664490 960.871887,735.801697 
	C963.487427,732.203857 965.322510,729.679565 967.157654,727.155273 
M1123.127563,901.710999 
	C1118.518433,905.747253 1113.757080,909.624451 1109.336670,913.857727 
	C1103.025269,919.901917 1096.566284,925.867004 1090.902222,932.491516 
	C1084.669067,939.781555 1078.956421,947.572998 1073.601807,955.539124 
	C1069.675537,961.380371 1065.407349,967.174927 1065.851318,975.083191 
	C1066.339355,983.775757 1066.072754,992.520813 1065.886719,1001.237732 
	C1065.741333,1008.053040 1065.216797,1014.860291 1064.819458,1022.458801 
	C1067.476685,1021.251282 1069.045776,1020.726868 1070.419434,1019.883911 
	C1081.469482,1013.104065 1092.557861,1006.381897 1103.489014,999.414001 
	C1118.630737,989.762024 1133.921997,980.305908 1148.624512,970.016296 
	C1159.607178,962.330017 1169.524902,953.138428 1180.337402,945.189209 
	C1196.382446,933.392822 1209.833862,918.863647 1223.818115,904.908264 
	C1231.504883,897.237305 1228.766479,886.065002 1219.018799,881.033508 
	C1214.880859,878.897583 1210.802368,877.513550 1206.233032,876.451294 
	C1192.096313,873.164917 1177.962402,874.130737 1164.423218,877.549072 
	C1148.918579,881.463440 1135.981689,891.101990 1123.127563,901.710999 
M983.151001,1231.951538 
	C983.788696,1234.445068 984.632751,1236.906982 985.021912,1239.438721 
	C985.886047,1245.061523 986.331543,1250.752563 987.303711,1256.354004 
	C988.324524,1262.235962 989.743652,1268.049805 991.021912,1273.886108 
	C991.884644,1277.825439 992.853027,1281.742065 993.687988,1285.687012 
	C994.831665,1291.089722 995.848938,1296.519287 997.003723,1301.919556 
	C998.016052,1306.653320 999.143555,1311.362549 1000.363831,1316.712891 
	C1001.790100,1315.428589 1002.421204,1315.142700 1002.488403,1314.758301 
	C1004.008545,1306.067139 1005.483521,1297.367798 1006.918945,1288.662231 
	C1007.133972,1287.358276 1007.001892,1285.997314 1007.213623,1284.692505 
	C1008.432556,1277.179688 1010.753296,1269.681519 1010.794739,1262.167969 
	C1011.097839,1207.200562 1010.949829,1152.230591 1010.924011,1097.261475 
	C1010.923462,1096.096191 1010.680664,1094.931030 1010.481323,1093.142334 
	C1008.457092,1095.506226 1006.937866,1097.210693 1005.494385,1098.977173 
	C994.136108,1112.876953 986.283386,1128.480713 983.113953,1146.221313 
	C982.017761,1152.357178 981.350159,1158.605469 981.005310,1164.831177 
	C980.446899,1174.912964 979.778931,1185.037842 980.144958,1195.108765 
	C980.581177,1207.109985 982.059204,1219.073486 983.151001,1231.951538 
M1042.953613,1027.633301 
	C1042.128296,1030.673096 1041.303101,1033.712891 1040.179565,1037.851318 
	C1046.338135,1033.811890 1043.006470,1029.347900 1043.145508,1025.418457 
	C1043.086060,1025.906860 1043.026733,1026.395142 1042.953613,1027.633301 
z"/>
  <path fill="#D99D69" stroke="none" d="M966.758423,727.107361 
	C965.322510,729.679565 963.487427,732.203857 960.871887,735.801697 
	C964.226074,734.664490 966.567200,733.762695 968.972656,733.091492 
	C970.696045,732.610657 972.546204,732.067078 974.262817,732.255127 
	C975.471191,732.387390 977.210266,733.511780 977.505615,734.539917 
	C977.815613,735.619080 977.064148,737.609192 976.115051,738.329407 
	C973.358582,740.421021 970.039001,741.791138 967.364746,743.966064 
	C962.890808,747.604675 958.709656,751.609314 954.504639,755.565430 
	C953.927490,756.108459 953.920288,757.257385 953.541809,758.470032 
	C961.098145,754.112061 965.542969,745.480103 975.612183,746.339417 
	C971.142029,749.790405 965.889709,752.287720 961.546753,755.883423 
	C952.917603,763.027832 951.429260,773.333862 950.835815,783.747253 
	C950.598572,787.910095 951.247803,792.161621 950.674927,796.258240 
	C949.825439,802.333557 947.314209,808.285706 947.176819,814.328186 
	C946.903259,826.354248 944.395874,838.059448 943.335449,849.892273 
	C942.064880,864.070251 941.254578,878.246033 939.157593,892.383179 
	C937.519592,903.426392 937.395325,914.722534 937.030701,925.920410 
	C936.198914,951.461853 935.338928,977.008484 935.036316,1002.559509 
	C934.697083,1031.191895 934.958008,1059.831421 934.966370,1088.467773 
	C934.966736,1089.796631 934.648743,1091.311035 935.162231,1092.423828 
	C938.348389,1099.328125 941.729980,1106.142212 944.786011,1113.153076 
	C942.360291,1111.137939 940.195435,1108.956055 938.030518,1106.774170 
	C937.727905,1106.941406 937.425293,1107.108765 937.122742,1107.276123 
	C944.422546,1124.739746 951.722412,1142.203247 959.022217,1159.666870 
	C959.866333,1159.532593 960.710449,1159.398315 961.554565,1159.264160 
	C961.656860,1155.532471 961.759155,1151.800903 961.968872,1147.802979 
	C962.116028,1147.349609 962.155823,1147.162354 962.329712,1146.612305 
	C962.656311,1143.763550 962.848877,1141.277588 963.067932,1138.655762 
	C963.094421,1138.519775 963.127563,1138.244629 963.294189,1137.984253 
	C963.618103,1137.151733 963.775391,1136.579590 963.929443,1135.985596 
	C963.926208,1135.963623 963.969666,1135.955200 964.157837,1135.651123 
	C964.591553,1134.184204 964.837158,1133.021362 965.189941,1131.492432 
	C968.523193,1123.048706 971.749390,1114.970703 974.975586,1106.892822 
	C974.979980,1109.577026 975.813232,1112.625488 974.825195,1114.873535 
	C972.372498,1120.454102 972.172302,1125.709961 974.773804,1131.145996 
	C974.988647,1131.594849 975.498413,1132.279419 975.356995,1132.467163 
	C970.702393,1138.646606 976.515808,1144.784302 975.223022,1151.316772 
	C971.897705,1168.119385 970.989990,1185.203125 972.660889,1202.415771 
	C973.445740,1210.500854 972.545837,1218.739502 972.667480,1226.904663 
	C972.708435,1229.655762 973.922607,1232.391357 973.949585,1235.140503 
	C974.036499,1244.016235 973.888367,1252.896606 973.647339,1261.770386 
	C973.611694,1263.083374 972.585449,1264.369507 971.765686,1266.243896 
	C970.047485,1264.806396 968.869568,1263.820923 967.246277,1262.462891 
	C964.010254,1269.418579 960.834778,1276.244141 957.452209,1283.514893 
	C958.442139,1283.588501 959.994629,1283.703979 961.755493,1284.218018 
	C960.595947,1285.282471 959.203979,1285.903320 957.863831,1286.620972 
	C947.231750,1292.313721 939.096069,1290.344116 931.840942,1280.819214 
	C925.708252,1272.767822 924.140625,1262.988892 922.300720,1253.714966 
	C920.211914,1243.186646 920.660706,1232.157349 919.972107,1221.348145 
	C919.314758,1211.029053 918.708496,1200.705322 917.909058,1190.396851 
	C916.717346,1175.028687 914.988831,1159.691650 914.217773,1144.304810 
	C913.576721,1131.512695 914.346375,1118.651245 913.755432,1105.854492 
	C913.515137,1100.650757 912.247437,1095.055176 909.846619,1090.477295 
	C903.888672,1079.116455 897.526611,1067.889771 890.357666,1057.262939 
	C882.779907,1046.030029 874.897522,1034.789917 865.677002,1024.928467 
	C852.365051,1010.691528 837.948242,997.451294 823.511841,984.325867 
	C819.517090,980.693848 814.490051,977.219666 808.033691,977.684875 
	C805.912231,975.888245 806.744629,975.084778 808.331665,973.689209 
	C811.193604,971.172607 813.627747,968.169556 817.048767,964.503784 
	C820.509277,965.666687 825.591858,967.374634 830.674377,969.082642 
	C830.766907,968.759155 830.859375,968.435730 830.951904,968.112244 
	C828.296753,965.653442 825.641602,963.194580 822.986450,960.735779 
	C829.823730,964.497131 837.236145,967.508057 843.358948,972.201477 
	C851.842163,978.704346 859.791260,986.059692 867.148926,993.826904 
	C873.204956,1000.220093 878.051758,1007.756104 883.462524,1014.763916 
	C890.018433,1023.254761 896.693787,1031.655273 903.139648,1040.228394 
	C906.538086,1044.748413 909.558350,1049.552734 912.749268,1054.228638 
	C913.198364,1054.085205 913.647400,1053.941772 914.096436,1053.798340 
	C914.096436,1043.930664 914.107666,1034.062988 914.094177,1024.195312 
	C914.064148,1002.228882 913.752075,980.258484 914.068237,958.297180 
	C914.329529,940.149597 915.030273,921.994446 916.134949,903.879211 
	C916.626282,895.821777 918.590576,887.854309 919.883362,879.845459 
	C919.909729,879.682251 919.893250,879.512512 919.906494,879.346619 
	C920.581299,870.873291 921.317993,862.404236 921.917297,853.925598 
	C922.643311,843.652649 923.152039,833.363586 923.952271,823.096863 
	C924.416748,817.137329 924.681580,811.066345 926.073486,805.295715 
	C928.657837,794.581421 929.542847,783.791016 930.241211,772.835266 
	C930.615723,766.960876 934.072998,761.296265 936.053528,755.507751 
	C938.862000,747.299622 944.531433,741.228882 951.211914,736.209412 
	C955.903870,732.684143 961.285461,730.076721 966.758423,727.107361 
M940.649292,1208.975952 
	C941.405701,1222.774048 942.460938,1236.565308 942.770020,1250.373413 
	C942.892090,1255.825562 944.250000,1260.573608 946.770569,1265.178711 
	C947.173523,1265.915039 948.181213,1267.108154 948.435730,1266.997803 
	C949.390442,1266.583618 950.738220,1265.825439 950.889526,1265.003052 
	C952.392761,1256.830078 953.922852,1248.648071 954.945923,1240.406372 
	C955.515564,1235.817749 955.209045,1231.111694 955.175659,1226.459351 
	C955.137512,1221.143311 955.374634,1215.779541 954.751770,1210.524292 
	C953.856384,1202.969360 952.319641,1195.488647 951.002075,1187.985962 
	C950.304443,1184.013672 949.821106,1179.961914 948.660583,1176.121460 
	C946.326477,1168.397217 943.711853,1160.750977 940.979980,1153.156494 
	C939.524414,1149.109985 937.582520,1145.238525 935.860107,1141.288086 
	C934.956482,1145.635986 934.947571,1149.623291 934.958679,1153.610718 
	C934.973083,1158.767334 934.015320,1164.172974 935.239075,1169.026978 
	C937.570251,1178.273193 939.111633,1187.462402 939.040466,1197.005981 
	C939.013062,1200.687378 940.059570,1204.376709 940.649292,1208.975952 
z"/>
  <path fill="#D99D69" stroke="none" d="M960.049927,1328.916138 
	C957.039917,1327.825684 954.029907,1326.735107 951.019897,1325.644653 
	C950.782715,1325.864502 950.545532,1326.084473 950.308350,1326.304443 
	C952.058472,1327.963989 953.671936,1329.804443 955.584229,1331.249268 
	C961.385986,1335.632812 967.021912,1340.194214 974.988342,1340.302002 
	C980.399780,1340.375122 981.701294,1342.793335 979.986084,1347.649658 
	C979.740173,1348.345825 979.704956,1349.784912 979.927917,1349.862793 
	C980.909912,1350.206055 982.113220,1350.499146 983.072510,1350.229004 
	C988.732544,1348.634644 989.550781,1349.279785 989.946533,1355.195435 
	C990.453125,1362.768433 991.787415,1370.337036 991.649963,1377.887329 
	C991.524841,1384.761230 990.024109,1391.626709 988.906677,1398.459473 
	C988.259338,1402.417969 987.171753,1406.304688 986.252869,1410.353638 
	C987.356140,1410.451538 987.836121,1410.531738 988.315735,1410.529419 
	C989.651550,1410.522827 990.987122,1410.481934 992.322754,1410.454712 
	C991.502197,1411.412231 990.587952,1412.305786 989.881104,1413.341064 
	C988.536682,1415.310181 987.190552,1417.296509 986.080994,1419.400146 
	C985.418579,1420.656128 985.204285,1422.148438 984.487000,1423.707520 
	C984.156189,1414.392822 983.871948,1404.896606 984.182129,1395.419922 
	C984.411133,1388.423828 985.867798,1381.457153 985.929565,1374.469971 
	C985.978027,1368.986938 984.813599,1363.479126 983.960571,1358.017944 
	C983.838135,1357.234131 982.530518,1356.314819 981.604370,1356.056152 
	C980.366272,1355.710327 978.942139,1355.783081 977.637329,1355.962646 
	C968.091064,1357.275024 959.953003,1353.816650 952.717957,1348.150391 
	C944.039368,1341.353271 935.381104,1334.474487 927.256592,1327.038330 
	C913.364380,1314.322876 899.616028,1301.422485 886.351257,1288.059692 
	C878.405273,1280.054932 871.159607,1271.284424 864.206726,1262.383545 
	C856.775024,1252.869629 849.704590,1243.026855 843.137878,1232.898682 
	C837.667969,1224.462280 832.843323,1215.562744 828.308899,1206.577637 
	C824.040894,1198.120239 820.636902,1189.231445 816.646362,1180.628296 
	C813.132996,1173.053467 809.226746,1165.661133 805.690979,1158.096191 
	C802.027710,1150.258301 798.558167,1142.328369 795.083008,1134.404175 
	C791.180054,1125.504395 787.063354,1116.680542 783.623901,1107.602295 
	C781.493408,1101.979004 780.293518,1095.979248 778.954834,1090.085205 
	C776.877563,1080.939453 774.461853,1071.816772 773.222656,1062.546143 
	C770.920471,1045.324097 767.502930,1028.127686 769.186096,1010.601807 
	C769.794006,1004.272888 770.982483,997.999756 772.204773,991.101562 
	C772.660461,989.991333 772.817505,989.480591 772.974548,988.969910 
	C772.974548,988.969910 773.078918,988.558594 773.496582,988.358521 
	C774.595154,989.824646 775.892700,991.505981 775.852234,993.154419 
	C775.657349,1001.090576 774.714233,1009.020264 774.762512,1016.947754 
	C774.839600,1029.612427 778.726501,1041.841919 780.209045,1054.210815 
	C782.360229,1072.158081 789.336914,1088.157715 795.620850,1104.470459 
	C798.725586,1112.530029 800.065857,1119.824219 797.553162,1128.039673 
	C797.035706,1129.731567 798.071899,1132.155151 798.954956,1133.967041 
	C800.977966,1138.118530 803.510193,1142.021729 805.541382,1146.169678 
	C808.846802,1152.919922 811.916931,1159.785278 815.086426,1166.602051 
	C815.723755,1166.460571 816.361084,1166.319092 816.998413,1166.177734 
	C816.836548,1164.554321 817.179199,1162.626587 816.417969,1161.364990 
	C814.141602,1157.592651 816.365906,1156.146362 818.694763,1154.693359 
	C827.300049,1171.107300 835.740845,1187.207520 844.181641,1203.307739 
	C844.697327,1203.048706 845.213013,1202.789551 845.728699,1202.530396 
	C843.889832,1198.912354 841.739746,1195.409790 840.337585,1191.629761 
	C839.585022,1189.600952 840.117737,1187.095337 840.383545,1184.993408 
	C845.589844,1194.355347 849.561340,1203.934082 855.647644,1212.575684 
	C865.567810,1226.660522 873.288147,1242.427368 884.124146,1255.698486 
	C895.941223,1270.171265 910.188049,1282.671753 923.502930,1295.903931 
	C928.182800,1300.554688 933.220642,1304.847168 938.127991,1309.266602 
	C945.419861,1315.833618 952.741150,1322.367920 960.049927,1328.916138 
z"/>
  <path fill="#99542D" stroke="none" d="M840.070496,1184.804932 
	C840.117737,1187.095337 839.585022,1189.600952 840.337585,1191.629761 
	C841.739746,1195.409790 843.889832,1198.912354 845.728699,1202.530396 
	C845.213013,1202.789551 844.697327,1203.048706 844.181641,1203.307739 
	C835.740845,1187.207520 827.300049,1171.107300 818.694763,1154.693359 
	C816.365906,1156.146362 814.141602,1157.592651 816.417969,1161.364990 
	C817.179199,1162.626587 816.836548,1164.554321 816.998413,1166.177734 
	C816.361084,1166.319092 815.723755,1166.460571 815.086426,1166.602051 
	C811.916931,1159.785278 808.846802,1152.919922 805.541382,1146.169678 
	C803.510193,1142.021729 800.977966,1138.118530 798.954956,1133.967041 
	C798.071899,1132.155151 797.035706,1129.731567 797.553162,1128.039673 
	C800.065857,1119.824219 798.725586,1112.530029 795.620850,1104.470459 
	C789.336914,1088.157715 782.360229,1072.158081 780.209045,1054.210815 
	C778.726501,1041.841919 774.839600,1029.612427 774.762512,1016.947754 
	C774.714233,1009.020264 775.657349,1001.090576 775.852234,993.154419 
	C775.892700,991.505981 774.595154,989.824646 773.532471,988.149414 
	C774.982117,979.502380 778.551880,971.910156 784.889160,965.453796 
	C791.133728,959.091919 798.461060,954.960144 807.140137,955.231445 
	C812.475891,955.398193 817.726196,958.301758 823.000610,960.356079 
	C825.641602,963.194580 828.296753,965.653442 830.951904,968.112244 
	C830.859375,968.435730 830.766907,968.759155 830.674377,969.082642 
	C825.591858,967.374634 820.509277,965.666687 817.048767,964.503784 
	C813.627747,968.169556 811.193604,971.172607 808.331665,973.689209 
	C806.744629,975.084778 805.912231,975.888245 807.631165,977.726990 
	C804.363892,980.219360 800.037476,981.770386 798.550171,984.742249 
	C795.828552,990.180481 794.334106,996.370422 793.156189,1002.408447 
	C791.712830,1009.807373 790.115051,1017.408997 790.387451,1024.857056 
	C790.830750,1036.973389 792.673462,1049.043457 794.058411,1061.117920 
	C794.607422,1065.904053 795.001709,1070.801880 796.369568,1075.378906 
	C798.622742,1082.917969 801.525696,1090.269409 804.308044,1097.642212 
	C808.536438,1108.847168 812.861816,1120.015991 817.211609,1131.174561 
	C820.200134,1138.841064 823.143677,1146.531128 826.388245,1154.090088 
	C830.808838,1164.388550 835.497070,1174.572144 840.070496,1184.804932 
z"/>
  <path fill="#99542D" stroke="none" d="M772.707275,989.108521 
	C772.817505,989.480591 772.660461,989.991333 772.323975,990.710754 
	C772.243042,990.362061 772.341492,989.804626 772.707275,989.108521 
z"/>
  <path fill="#D99D69" stroke="none" d="M960.261841,1329.293213 
	C962.078186,1330.097168 963.969788,1331.217651 965.973389,1332.685547 
	C964.169312,1331.891846 962.253235,1330.750732 960.261841,1329.293213 
z"/>
  <path fill="#D99D69" stroke="none" d="M986.168335,743.554932 
	C984.704041,743.875671 983.270691,743.916565 981.422241,744.064636 
	C981.937134,741.426025 983.077881,741.229004 986.168335,743.554932 
z"/>
  <path fill="#D99D69" stroke="none" d="M978.982239,745.513123 
	C978.311035,745.847412 977.534668,745.888062 976.378540,746.002319 
	C976.958252,745.790344 977.917664,745.504944 978.982239,745.513123 
z"/>
  <path fill="#99542D" stroke="none" d="M944.786011,1113.153076 
	C947.364990,1117.367188 949.912476,1121.644775 951.949097,1126.152954 
	C955.187317,1133.320557 958.084717,1140.642334 961.493896,1147.984009 
	C961.759155,1151.800903 961.656860,1155.532471 961.554565,1159.264160 
	C960.710449,1159.398315 959.866333,1159.532593 959.022217,1159.666870 
	C951.722412,1142.203247 944.422546,1124.739746 937.122742,1107.276123 
	C937.425293,1107.108765 937.727905,1106.941406 938.030518,1106.774170 
	C940.195435,1108.956055 942.360291,1111.137939 944.786011,1113.153076 
z"/>
  <path fill="#99542D" stroke="none" d="M962.329712,1146.612305 
	C962.230835,1144.407104 962.266052,1141.838867 962.671387,1139.031250 
	C962.848877,1141.277588 962.656311,1143.763550 962.329712,1146.612305 
z"/>
  <path fill="#99542D" stroke="none" d="M964.157837,1135.651123 
	C964.109802,1134.706055 964.249939,1133.457031 964.736450,1132.033203 
	C964.837158,1133.021362 964.591553,1134.184204 964.157837,1135.651123 
z"/>
  <path fill="#99542D" stroke="none" d="M963.294189,1137.984253 
	C963.183105,1137.586426 963.238647,1136.928223 963.613464,1136.138672 
	C963.775391,1136.579590 963.618103,1137.151733 963.294189,1137.984253 
z"/>
</svg>